<?xml version="1.0" encoding="UTF-8" standalone="no"?>
<svg
   width="16"
   height="16"
   viewBox="0 0 4.2333332 4.2333335"
   version="1.1"
   id="svg1"
   xmlns="http://www.w3.org/2000/svg"
   xmlns:svg="http://www.w3.org/2000/svg">
  <defs
     id="defs1" />
  <g
     id="layer1">
    <circle
       style="fill:#0d6efd;fill-opacity:1;stroke-width:0.264583"
       id="path1"
       cx="2.1166666"
       cy="2.1166666"
       r="2.1166666" />
    <g
       id="g1"
       transform="matrix(0.03307292,0,0,0.03307292,0.52916666,0.52916666)">
      <path
         style="fill:#ffffff"
         d="M 48,8 C 25.908,8 8,25.908 8,48 8,70.092 25.908,88 48,88 70.092,88 88,70.092 88,48 88,25.908 70.092,8 48,8 Z m 0,8 c 17.673,0 32,14.327 32,32 0,17.673 -14.327,32 -32,32 C 30.327,80 16,65.673 16,48 16,30.327 30.327,16 48,16 Z"
         id="path2" />
      <path
         style="fill:#ffffff"
         d="m 48,24 c -13.255,0 -24,10.745 -24,24 0,13.255 10.745,24 24,24 13.255,0 24,-10.745 24,-24 0,-13.255 -10.745,-24 -24,-24 z m 0,8 c 8.837,0 16,7.163 16,16 0,8.837 -7.163,16 -16,16 -8.837,0 -16,-7.163 -16,-16 0,-8.837 7.163,-16 16,-16 z"
         id="path3" />
      <path
         style="fill:#ffffff"
         d="m 48,36 c -6.627,0 -12,5.373 -12,12 0,6.627 5.373,12 12,12 6.627,0 12,-5.373 12,-12 0,-6.627 -5.373,-12 -12,-12 z m 0,4 c 4.418,0 8,3.582 8,8 0,4.418 -3.582,8 -8,8 -4.418,0 -8,-3.582 -8,-8 0,-4.418 3.582,-8 8,-8 z"
         id="path4" />
      <path
         style="fill:#ffffff"
         d="m 48,44 c -2.209,0 -4,1.791 -4,4 0,2.209 1.791,4 4,4 2.209,0 4,-1.791 4,-4 0,-2.209 -1.791,-4 -4,-4 z"
         id="path5" />
    </g>
  </g>
</svg>
